<?xml version="1.0" encoding="UTF-8"?>
<!DOCTYPE svg PUBLIC "-//W3C//DTD SVG 1.1//EN" "http://www.w3.org/Graphics/SVG/1.1/DTD/svg11.dtd">
<!-- Creator: CorelDRAW 2021 (64-Bit) -->
<svg xmlns="http://www.w3.org/2000/svg" xml:space="preserve" width="3.5in" height="3in" version="1.1" style="shape-rendering:geometricPrecision; text-rendering:geometricPrecision; image-rendering:optimizeQuality; fill-rule:evenodd; clip-rule:evenodd"
viewBox="0 0 3500 3000"
 xmlns:xlink="http://www.w3.org/1999/xlink"
 xmlns:xodm="http://www.corel.com/coreldraw/odm/2003">
 <defs>
  <style type="text/css">
   <![CDATA[
    .fil3 {fill:url(#id0)}
    .fil2 {fill:url(#id1)}
    .fil1 {fill:url(#id2)}
    .fil0 {fill:url(#id3)}
   ]]>
  </style>
  <linearGradient id="id0" gradientUnits="userSpaceOnUse" x1="3009.08" y1="1922.03" x2="2551.25" y2="1781.05">
   <stop offset="0" style="stop-opacity:1; stop-color:#0701E1"/>
   <stop offset="1" style="stop-opacity:1; stop-color:#05EAF0"/>
  </linearGradient>
  <linearGradient id="id1" gradientUnits="userSpaceOnUse" x1="2233.64" y1="2137.16" x2="1961.88" y2="2097.32">
   <stop offset="0" style="stop-opacity:1; stop-color:#B102C1"/>
   <stop offset="1" style="stop-opacity:1; stop-color:#F700A2"/>
  </linearGradient>
  <linearGradient id="id2" gradientUnits="userSpaceOnUse" xlink:href="#id0" x1="2869.36" y1="1335.49" x2="1812.72" y2="1846.66">
  </linearGradient>
  <linearGradient id="id3" gradientUnits="userSpaceOnUse" xlink:href="#id1" x1="2980.61" y1="623.37" x2="1562.08" y2="1224.07">
  </linearGradient>
 </defs>
 <g id="Layer_x0020_1">
  <metadata id="CorelCorpID_0Corel-Layer"/>
  <g id="_1408226254064">
   <path class="fil0" d="M599.68 1444.53c671.41,-264.59 1420.61,-538.22 2130.91,-807.33 64.44,-13.91 91.77,5.72 91.29,50.46 10.07,187.21 -47.55,204.07 -82.98,222.21 -375.11,142.06 -750.21,284.12 -1125.32,426.17 -44.49,18.78 -4.74,85.27 32.97,62.17 341.32,-130.33 676.68,-251.09 1018,-381.43 79.94,-29.34 116.47,2.47 115.26,39.68 -4.02,123.2 -12.28,230.72 -22.8,303.96 -13,-31.23 -68.04,-40.24 -103.3,-38.44 -7.63,0.39 -99.52,9.59 -155.7,40.38 0,0 -4.98,-8.98 -37.4,4.53 -292.29,113.73 -586.36,220.72 -878.65,334.45 -73.15,25.67 -94.89,-68.96 -60.65,-93.43 14.91,-10.66 81.76,-40.05 125.81,-60.07 30.13,-11.46 19.36,-58.58 -42.04,-32.11 -107.71,41.14 -204.57,77.76 -312.28,118.9 -94.75,39.42 -135.97,-32.96 -76.88,-69.41 53.37,-22.8 110.88,-41.41 171.74,-70.24 56.09,-21.79 27.99,-88.66 -36.04,-60.07 -164.96,62.47 -355.24,132.38 -494.89,187.41 -54.78,21.59 -88.39,-61.22 -38.94,-92.08 13.81,-8.62 146.76,-59.58 220.43,-91.61 21.05,-9.18 12.44,-48.06 -31.24,-36.33 -115.72,46.06 -243.54,85.07 -359.26,131.13 -98.99,31.01 -125.04,-53.74 -48.05,-88.91z"/>
   <path class="fil1" d="M2757.02 1360.43c-19.66,161.69 -26.78,249.8 -117.13,285.34 -318.11,125.14 -605.07,238.22 -923.38,362.87 -110.24,43.17 -143.6,-64.72 -72.07,-93.71 112.2,-45.47 224.41,-90.94 336.61,-136.42 18.61,-14.41 4.79,-38.74 -27.63,-27.63 -55.66,21.22 -111.31,47.16 -166.97,68.38 -72.44,29.8 -109.76,-73.17 -67.27,-91.21 234.57,-99.6 441.63,-167.28 666.18,-254.65 106.92,-43.35 128.38,-89.63 111.65,-112.02 139.29,-66.85 253.78,-38.38 260,-0.95z"/>
   <path class="fil2" d="M1973.78 1944.38c116.74,0 211.38,94.65 211.38,211.41 0,116.76 -94.64,211.41 -211.38,211.41 -116.74,0 -211.38,-94.65 -211.38,-211.41 0,-116.76 94.64,-211.41 211.38,-211.41zm0 139.08c39.94,0 72.31,32.39 72.31,72.33 0,39.94 -32.38,72.33 -72.31,72.33 -39.94,0 -72.31,-32.38 -72.31,-72.33 0,-39.94 32.38,-72.33 72.31,-72.33z"/>
   <path class="fil3" d="M2733.8 1663.27c116.74,0 211.38,94.65 211.38,211.41 0,116.76 -94.64,211.41 -211.38,211.41 -116.74,0 -211.38,-94.65 -211.38,-211.41 0,-116.76 94.64,-211.41 211.38,-211.41zm0 139.09c39.94,0 72.31,32.38 72.31,72.33 0,39.94 -32.38,72.33 -72.31,72.33 -39.94,0 -72.31,-32.39 -72.31,-72.33 0,-39.94 32.38,-72.33 72.31,-72.33z"/>
  </g>
 </g>
</svg>
